<svg width="40" height="40" viewBox="0 0 40 40" fill="none" xmlns="http://www.w3.org/2000/svg">
<circle cx="20" cy="20" r="19" fill="white" stroke="#2A8AE6" stroke-width="2"/>
<path d="M19.9898 16H26.0163C26.7238 16 27.0563 16.3405 26.9922 17.0477C26.8375 18.8139 26.6667 20.5779 26.5042 22.3477C26.356 23.9291 26.2066 25.5101 26.056 27.0906C26.0316 27.3539 26.0177 27.6194 25.9765 27.8799C25.7834 29.0967 24.8375 29.9724 23.6231 29.9837C21.2065 30.0054 18.7898 30.0054 16.3732 29.9837C15.0731 29.9696 14.109 28.9566 13.9961 27.6363C13.8301 25.6847 13.6315 23.7359 13.4481 21.7863C13.2982 20.1964 13.1456 18.6065 13.0062 17.0158C12.949 16.3617 13.292 16.0042 13.9431 16.0035L19.9898 16ZM21.1937 26.571H21.1986C21.1881 26.7125 21.17 26.8541 21.1686 26.9957C21.1635 27.2137 21.2406 27.4254 21.384 27.5878C21.5274 27.7501 21.7263 27.8507 21.9403 27.8692C22.1548 27.8834 22.3664 27.8131 22.5313 27.673C22.6961 27.5328 22.8015 27.3337 22.8256 27.1168C22.8479 26.9334 22.8563 26.7479 22.8681 26.5632C22.9671 24.9968 23.0654 23.43 23.163 21.8628C23.2216 20.9114 23.2885 19.9614 23.3338 19.01C23.3405 18.8971 23.3247 18.7841 23.2873 18.6777C23.2499 18.5712 23.1918 18.4735 23.1163 18.3904C23.0409 18.3073 22.9497 18.2406 22.8482 18.1941C22.7468 18.1477 22.6371 18.1225 22.5258 18.1201C22.3061 18.1159 22.0935 18.1991 21.9335 18.3521C21.7735 18.505 21.6789 18.7155 21.6698 18.9385C21.5095 21.4826 21.3508 24.0268 21.1937 26.571ZM18.8033 26.6595C18.7104 25.1191 18.6174 23.5785 18.5245 22.0376C18.4613 21.0074 18.3957 19.9777 18.3279 18.9484C18.3208 18.7395 18.2391 18.5405 18.0979 18.3884C17.9568 18.2364 17.7659 18.1418 17.5611 18.1223C17.3598 18.1064 17.1597 18.1656 16.9983 18.2888C16.8369 18.4119 16.7252 18.5905 16.6841 18.7912C16.6615 18.9659 16.6599 19.1428 16.6792 19.3179C16.7945 21.2018 16.9107 23.0855 17.0278 24.969C17.0724 25.6819 17.1121 26.3954 17.1728 27.1075C17.1908 27.3254 17.2923 27.5273 17.4556 27.6698C17.6189 27.8123 17.8307 27.8839 18.0455 27.8692C18.2602 27.8532 18.4607 27.7545 18.6061 27.5933C18.7515 27.4321 18.8308 27.2206 18.8277 27.0021C18.8277 26.8888 18.8117 26.7741 18.8033 26.6595Z" fill="#2A8AE6"/>
<path d="M23.3648 12.3119H25.552C26.0867 12.3119 26.6214 12.3055 27.1561 12.3119C27.3742 12.3103 27.5842 12.3874 27.7405 12.5263C27.8968 12.6652 27.9867 12.8548 27.9908 13.0539C28.0034 13.4534 28.0027 13.8536 27.9908 14.2531C27.9859 14.4473 27.9002 14.6324 27.751 14.7709C27.6017 14.9093 27.4003 14.9907 27.1877 14.9983C27.1174 15.0021 27.0472 14.9983 26.9769 14.9983H13.0147C12.3156 14.9983 12.0023 14.7136 12.0016 14.0793C12.0016 13.7587 11.998 13.438 12.0016 13.1174C12.0072 12.6255 12.3529 12.31 12.8946 12.3087C14.0342 12.3055 15.1738 12.3087 16.3135 12.3087H16.6078C16.6289 12.056 16.6268 11.8168 16.6725 11.5847C16.7548 11.1427 17.006 10.7417 17.3814 10.4527C17.7568 10.1637 18.2323 10.0053 18.7234 10.0058C19.5736 9.99808 20.4237 9.99808 21.2739 10.0058C21.8285 10.0083 22.3596 10.211 22.751 10.5697C23.1425 10.9283 23.3627 11.4138 23.3634 11.9201C23.3662 12.0419 23.3648 12.1612 23.3648 12.3119ZM18.3145 12.2926H21.6729C21.6765 12.2401 21.6807 12.1939 21.6814 12.1477C21.6905 11.6469 21.5795 11.5436 21.0308 11.5436C20.3043 11.5436 19.5785 11.5436 18.8527 11.5436C18.4592 11.5436 18.3173 11.6764 18.3145 12.0355C18.3138 12.115 18.3145 12.1945 18.3145 12.2926Z" fill="#2A8AE6"/>
</svg>
