<svg width="19" height="24" viewBox="0 0 19 24" fill="none" xmlns="http://www.w3.org/2000/svg">
<path d="M9.48918 7.63635H15.8505C16.5973 7.63635 16.9483 8.0078 16.8806 8.77928C16.7173 10.706 16.537 12.6305 16.3656 14.5611C16.2091 16.2863 16.0514 18.011 15.8924 19.7351C15.8667 20.0224 15.8519 20.312 15.8085 20.5962C15.6047 21.9237 14.6062 22.879 13.3244 22.8913C10.7735 22.915 8.22256 22.915 5.67167 22.8913C4.29934 22.8759 3.28168 21.7708 3.16247 20.3306C2.98734 18.2015 2.77763 16.0755 2.5841 13.9487C2.4259 12.2142 2.26475 10.4798 2.11758 8.74453C2.05725 8.03097 2.41928 7.64099 3.10655 7.64022L9.48918 7.63635ZM10.76 19.1683H10.7651C10.7541 19.3228 10.7349 19.4772 10.7335 19.6317C10.7282 19.8695 10.8095 20.1005 10.9608 20.2775C11.1122 20.4546 11.3222 20.5644 11.548 20.5846C11.7745 20.6 11.9979 20.5233 12.1719 20.3705C12.3459 20.2176 12.4571 20.0004 12.4826 19.7637C12.5061 19.5637 12.5149 19.3614 12.5274 19.1598C12.6319 17.4511 12.7357 15.7419 12.8387 14.0321C12.9005 12.9942 12.9711 11.9578 13.019 10.9199C13.026 10.7969 13.0093 10.6736 12.9699 10.5574C12.9305 10.4413 12.8691 10.3347 12.7895 10.2441C12.7098 10.1534 12.6136 10.0806 12.5065 10.0299C12.3994 9.97926 12.2836 9.95182 12.1661 9.94923C11.9342 9.94459 11.7098 10.0354 11.5409 10.2023C11.372 10.3691 11.2721 10.5987 11.2625 10.842C11.0933 13.6174 10.9258 16.3929 10.76 19.1683ZM8.23679 19.2648C8.13868 17.5844 8.04056 15.9038 7.94245 14.2228C7.87574 13.099 7.80657 11.9756 7.73495 10.8528C7.72749 10.625 7.6412 10.4078 7.49222 10.2419C7.34324 10.076 7.14178 9.97282 6.92553 9.95155C6.71307 9.93429 6.5019 9.99886 6.33152 10.1332C6.16114 10.2675 6.04323 10.4624 5.99985 10.6813C5.97604 10.8719 5.97431 11.0648 5.9947 11.2559C6.11636 13.3111 6.239 15.366 6.36262 17.4207C6.40971 18.1984 6.45165 18.9768 6.51567 19.7537C6.53466 19.9913 6.64188 20.2116 6.81422 20.3671C6.98656 20.5225 7.21021 20.6006 7.43693 20.5846C7.66353 20.5671 7.8752 20.4594 8.02866 20.2836C8.18212 20.1078 8.26578 19.877 8.26254 19.6386C8.26254 19.5151 8.24562 19.39 8.23679 19.2648Z" fill="#676767"/>
<path d="M13.0517 3.61294H15.3605C15.9248 3.61294 16.4892 3.60594 17.0536 3.61294C17.2839 3.61124 17.5056 3.69529 17.6705 3.84684C17.8355 3.99839 17.9304 4.2052 17.9347 4.42237C17.948 4.85823 17.9473 5.29478 17.9347 5.73063C17.9296 5.94244 17.8391 6.14444 17.6816 6.29549C17.524 6.44653 17.3114 6.53525 17.087 6.54356C17.0128 6.54776 16.9387 6.54356 16.8645 6.54356H2.12663C1.3887 6.54356 1.05793 6.23294 1.05719 5.54103C1.05719 5.19123 1.05348 4.84143 1.05719 4.49163C1.06312 3.95504 1.42801 3.61084 1.99982 3.60944C3.20276 3.60594 4.40569 3.60944 5.60863 3.60944H5.91938C5.94163 3.3338 5.93941 3.07285 5.98761 2.81959C6.07454 2.33749 6.33965 1.9 6.73593 1.58471C7.13221 1.26942 7.63405 1.0967 8.15246 1.09718C9.04985 1.08878 9.94723 1.08878 10.8446 1.09718C11.4301 1.09995 11.9906 1.3211 12.4039 1.71235C12.8171 2.10361 13.0495 2.63319 13.0503 3.18548C13.0532 3.31841 13.0517 3.44853 13.0517 3.61294ZM7.72083 3.59195H11.2659C11.2696 3.53458 11.274 3.48421 11.2748 3.43384C11.2844 2.88745 11.1672 2.77482 10.588 2.77482C9.82115 2.77482 9.05504 2.77482 8.28892 2.77482C7.8736 2.77482 7.72379 2.91963 7.72083 3.31141C7.72008 3.39816 7.72083 3.48491 7.72083 3.59195Z" fill="#676767"/>
</svg>
